<svg enable-background="new 0 0 32 32" height="512" viewBox="0 0 32 32" width="512" xmlns="http://www.w3.org/2000/svg"><path d="m26 32h-20c-3.314 0-6-2.686-6-6v-20c0-3.314 2.686-6 6-6h20c3.314 0 6 2.686 6 6v20c0 3.314-2.686 6-6 6z" fill="#e3f8fa"/><g fill="#26c6da"><path d="m13.491 21.028c-.126 0-.255-.036-.368-.111-.307-.203-.391-.617-.187-.924.188-.284.297-.492.304-.506.169-.327.57-.455.896-.287.327.167.456.568.29.896 0 0-.135.266-.38.634-.127.193-.339.298-.555.298z"/><path d="m10.833 22.958c-.409 0-.76-.048-1.073-.146-.352-.111-.547-.485-.436-.836.111-.352.488-.545.836-.436.275.087.677.161 1.109.004.345-.122.728.053.854.4.126.346-.053.729-.4.854-.294.106-.593.16-.89.16z"/><path d="m8.686 20.626c-.348 0-.641-.27-.665-.623-.014-.222-.021-.459-.021-.711 0-.368.298-.667.667-.667.368 0 .667.298.667.667 0 .221.006.429.019.624.024.367-.255.685-.622.709-.016 0-.03.001-.045.001z"/></g><path d="m13.167 17.505v2.454c0 .206.127.392.32.466.059.023.12.034.18.034.138 0 .273-.057.37-.164l1.66-1.827z" fill="#8ce1eb"/><path d="m23.84 7.925c-.14-.13-.342-.169-.521-.1l-15 5.833c-.193.076-.32.262-.319.469s.129.392.322.465l4.135 1.573 8.987-5.762-7.414 6.361 6.125 2.329c.057.021.118.033.178.033.076 0 .151-.017.22-.051.124-.061.218-.171.258-.303l3.167-10.333c.056-.184.003-.383-.138-.514z" fill="#26c6da"/></svg>