<svg height="480pt" viewBox="0 0 480 480" width="480pt" xmlns="http://www.w3.org/2000/svg" xmlns:xlink="http://www.w3.org/1999/xlink"><linearGradient id="linear0" gradientUnits="userSpaceOnUse" x1="240" x2="240" y1="480" y2="0"><stop offset="0" stop-color="#12c2e9"/><stop offset=".056" stop-color="#19bfe9"/><stop offset=".137" stop-color="#2db6ea"/><stop offset=".235" stop-color="#4da7ea"/><stop offset=".344" stop-color="#7993eb"/><stop offset=".462" stop-color="#b279ed"/><stop offset=".497" stop-color="#c471ed"/><stop offset="1" stop-color="#f64f59"/></linearGradient><path d="m240 0c-132.546875 0-240 107.453125-240 240s107.453125 240 240 240 240-107.453125 240-240c-.148438-132.484375-107.515625-239.851562-240-240zm0 464c-123.710938 0-224-100.289062-224-224s100.289062-224 224-224 224 100.289062 224 224c-.140625 123.652344-100.347656 223.859375-224 224zm104-312h-81.472656c.949218-2.5625 1.445312-5.269531 1.472656-8 0-13.253906-10.746094-24-24-24s-24 10.746094-24 24c.027344 2.730469.523438 5.4375 1.472656 8h-81.472656c-4.417969 0-8 3.582031-8 8v32c0 4.417969 3.582031 8 8 8h8.800781l15.277344 152.800781c.414063 4.101563 3.878906 7.21875 8 7.199219h143.921875c4.125.019531 7.585938-3.097656 8-7.199219l15.238281-152.800781h8.761719c4.417969 0 8-3.582031 8-8v-32c0-4.417969-3.582031-8-8-8zm-104-16c4.417969 0 8 3.582031 8 8s-3.582031 8-8 8-8-3.582031-8-8 3.582031-8 8-8zm64.800781 208h-129.5625l-14.398437-144h158.359375zm31.199219-160h-192v-16h192zm-104 120v-64c0-4.417969 3.582031-8 8-8s8 3.582031 8 8v64c0 4.417969-3.582031 8-8 8s-8-3.582031-8-8zm32.0625-.992188 8-64c.292969-2.886718 2.128906-5.390624 4.792969-6.542968 2.667969-1.148438 5.746093-.761719 8.046875 1.007812 2.300781 1.769532 3.460937 4.648438 3.035156 7.519532l-8 64c-.5 4.003906-3.902344 7.007812-7.9375 7.007812-.335938 0-.667969-.023438-1-.0625-4.378906-.554688-7.484375-4.550781-6.9375-8.929688zm-64 1.984376-8-64c-.433594-4.324219 2.65625-8.203126 6.96875-8.742188s8.265625 2.460938 8.90625 6.757812l8 64c.546875 4.382813-2.5625 8.378907-6.945312 8.929688-.328126.039062-.660157.058594-.992188.0625-4.035156 0-7.4375-3.003906-7.9375-7.007812zm0 0" fill="url(#linear0)"/></svg>