<svg height="480pt" viewBox="0 0 480 480" width="480pt" xmlns="http://www.w3.org/2000/svg" xmlns:xlink="http://www.w3.org/1999/xlink"><linearGradient id="linear0" gradientUnits="userSpaceOnUse" x1="240" x2="240" y1="480" y2="0"><stop offset="0" stop-color="#12c2e9"/><stop offset=".056" stop-color="#19bfe9"/><stop offset=".137" stop-color="#2db6ea"/><stop offset=".235" stop-color="#4da7ea"/><stop offset=".344" stop-color="#7993eb"/><stop offset=".462" stop-color="#b279ed"/><stop offset=".497" stop-color="#c471ed"/><stop offset="1" stop-color="#f64f59"/></linearGradient><path d="m240 0c-132.546875 0-240 107.453125-240 240s107.453125 240 240 240 240-107.453125 240-240c-.148438-132.484375-107.515625-239.851562-240-240zm0 464c-123.710938 0-224-100.289062-224-224s100.289062-224 224-224 224 100.289062 224 224c-.140625 123.652344-100.347656 223.859375-224 224zm120-224c-.042969 39.746094-32.253906 71.957031-72 72h-113.046875l23.703125 35.558594c2.453125 3.675781 1.460938 8.644531-2.214844 11.097656-3.675781 2.453125-8.644531 1.460938-11.097656-2.214844l-32-48c-.152344-.28125-.289062-.570312-.40625-.867187-.140625-.257813-.265625-.523438-.378906-.796875-.351563-.886719-.539063-1.824219-.558594-2.777344.019531-.9375.207031-1.863281.550781-2.734375.113281-.273437.238281-.542969.378907-.800781.117187-.296875.253906-.585938.40625-.863282l32-48c2.453124-3.675781 7.421874-4.667968 11.097656-2.21875 3.675781 2.453126 4.667968 7.421876 2.214844 11.097657l-23.695313 35.519531h113.046875c30.914062-.035156 55.964844-25.085938 56-56 0-4.417969 3.582031-8 8-8s8 3.582031 8 8zm-224 0c0 4.417969-3.582031 8-8 8s-8-3.582031-8-8c.042969-39.746094 32.253906-71.957031 72-72h113.046875l-23.703125-35.558594c-2.453125-3.675781-1.460938-8.644531 2.214844-11.097656 3.675781-2.453125 8.644531-1.460938 11.097656 2.214844l32 48c.152344.28125.289062.570312.40625.867187.140625.257813.269531.523438.378906.796875.351563.886719.542969 1.824219.558594 2.777344-.019531.933594-.207031 1.859375-.550781 2.726562-.109375.273438-.234375.542969-.378907.800782-.117187.296875-.253906.585937-.40625.863281l-32 48c-2.453124 3.675781-7.421874 4.667969-11.097656 2.21875-3.675781-2.453125-4.667968-7.421875-2.214844-11.097656l23.695313-35.511719h-113.046875c-30.914062.035156-55.964844 25.085938-56 56zm0 0" fill="url(#linear0)"/></svg>