<svg id="Capa_1" enable-background="new 0 0 512 512" height="512" viewBox="0 0 512 512" width="512" xmlns="http://www.w3.org/2000/svg" xmlns:xlink="http://www.w3.org/1999/xlink"><linearGradient id="SVGID_1_" gradientUnits="userSpaceOnUse" x1="256" x2="256" y1="452" y2="60"><stop offset="0" stop-color="#fd3a84"/><stop offset="1" stop-color="#ffa68d"/></linearGradient><linearGradient id="SVGID_2_" gradientUnits="userSpaceOnUse" x1="256" x2="256" y1="512" y2="0"><stop offset="0" stop-color="#ffc2cc"/><stop offset="1" stop-color="#fff2f4"/></linearGradient><g><g><g><path d="m346 60h-90c-8.291 0-15 6.709-15 15v15h-90v-15c0-8.291-6.709-15-15-15h-90c-8.284 0-15 6.716-15 15v347c0 16.569 13.431 30 30 30h270c16.569 0 30-13.431 30-30v-347c0-8.284-6.716-15-15-15zm105 34.763v-17.763c0-8.291-6.709-15-15-15s-15 6.709-15 15v17.763c-17.422 6.213-30 22.707-30 42.237v105c0 16.567 13.431 30 30 30h30c16.569 0 30-13.433 30-30v-105c0-19.53-12.578-36.024-30-42.237z" fill="url(#SVGID_1_)"/></g></g><g><g><path d="m136 120h120c8.291 0 15-6.709 15-15v-30c0-20.273-13.477-37.456-31.934-43.066-5.625-18.457-22.793-31.934-43.066-31.934s-37.441 13.477-43.066 31.934c-18.457 5.61-31.934 22.793-31.934 43.066v30c0 8.291 6.709 15 15 15zm-105 377c0 8.284 6.716 15 15 15h300c8.284 0 15-6.716 15-15v-75h-330zm75-225h16.5c2.1 9.6 5.7 18.3 11.1 26.4l-11.699 11.699c-6 5.7-6 15.3 0 21 4.89 5.438 14.459 6.543 20.999 0l11.7-11.7c8.1 5.401 16.8 9.001 26.4 11.101v16.5c0 8.399 6.599 15 15 15s15-6.601 15-15v-16.5c9.6-2.1 18.3-5.7 26.4-11.102l11.7 11.7c6.485 6.489 16.059 5.493 20.999 0 6-5.7 6-15.3 0-21l-11.699-11.698c5.4-8.101 9-16.8 11.1-26.4h16.5c8.401 0 15-6.601 15-15 0-8.401-6.599-15-15-15h-16.5c-2.1-9.6-5.7-18.3-11.1-26.4l11.699-11.7c6-5.7 6-15.3 0-21-5.698-6-15.298-6-20.999 0l-11.7 11.7c-8.101-5.4-16.8-9-26.4-11.1v-16.5c0-8.401-6.599-15-15-15s-15 6.599-15 15v16.5c-9.6 2.1-18.3 5.7-26.4 11.1l-11.7-11.7c-5.7-6-15.3-6-20.999 0-6 5.7-6 15.3 0 21l11.699 11.7c-5.4 8.101-9 16.8-11.1 26.4h-16.5c-8.401 0-15 6.599-15 15 0 8.399 6.599 15 15 15zm90-30c8.401 0 15 6.599 15 15 0 8.399-6.599 15-15 15s-15-6.601-15-15c0-8.401 6.599-15 15-15zm195 0v70.195c0 64.219 10.342 127.983 30.762 189.521 2.051 6.138 7.763 10.284 14.238 10.284s12.188-4.146 14.238-10.283c20.42-61.538 30.762-125.303 30.762-189.522v-70.195z" fill="url(#SVGID_2_)"/></g></g></g></svg>